<?xml version="1.0" standalone="no"?><svg xmlns="http://www.w3.org/2000/svg" viewBox="0 0 1440 320"><path fill="#5B75E1" fill-opacity="1" d="M0,192L40,208C80,224,160,256,240,272C320,288,400,288,480,277.3C560,267,640,245,720,250.7C800,256,880,288,960,272C1040,256,1120,192,1200,176C1280,160,1360,192,1400,208L1440,224L1440,320L1400,320C1360,320,1280,320,1200,320C1120,320,1040,320,960,320C880,320,800,320,720,320C640,320,560,320,480,320C400,320,320,320,240,320C160,320,80,320,40,320L0,320Z"></path></svg>